<?xml version="1.0" encoding="UTF-8" standalone="no"?>
<svg width="438px" height="180px" viewBox="0 0 438 180" version="1.1" xmlns="http://www.w3.org/2000/svg" xmlns:xlink="http://www.w3.org/1999/xlink" xmlns:sketch="http://www.bohemiancoding.com/sketch/ns">
    <!-- Generator: Sketch Beta 3.0.3 (7884) - http://www.bohemiancoding.com/sketch -->
    <title>sia</title>
    <desc>Created with Sketch Beta.</desc>
    <defs></defs>
    <g id="Page-1" stroke="none" stroke-width="1" fill="none" fill-rule="evenodd" sketch:type="MSPage">
        <g id="Network-+-Harddrive-+-Sia" sketch:type="MSLayerGroup" transform="translate(-9.000000, -9.000000)">
            <g id="Network" stroke="#333333" sketch:type="MSShapeGroup">
                <path d="M111.695547,174.748877 C111.695547,181.197661 106.466598,186.425102 100.016844,186.425102 C93.5666913,186.425102 88.3381405,181.197262 88.3381405,174.748877 C88.3381405,168.300093 93.5670896,163.072651 100.016844,163.072651 C106.466996,163.072651 111.695547,168.300491 111.695547,174.748877 L111.695547,174.748877 Z" id="path4047-2" stroke-width="4.48695585" fill="#E6E6E6"></path>
                <path d="M111.695547,174.748877 C111.695547,181.197661 106.466598,186.425102 100.016844,186.425102 C93.5666913,186.425102 88.3381405,181.197262 88.3381405,174.748877 C88.3381405,168.300093 93.5670896,163.072651 100.016844,163.072651 C106.466996,163.072651 111.695547,168.300491 111.695547,174.748877 L111.695547,174.748877 Z" id="path4047-2" stroke-width="4.48695585" fill="#E6E6E6"></path>
                <path d="M46.2307692,46.3250689 L99.606044,175.410468 L46.2307692,46.3250689 Z" id="path4222-6" stroke-width="4.13866449" fill="#333333"></path>
                <path d="M45.4450549,153.366391 L99.6049451,176.979063 L45.4450549,153.366391 Z" id="path4224-2" stroke-width="4.13866449"></path>
                <path d="M111.695547,174.748877 C111.695547,181.197661 106.466598,186.425102 100.016844,186.425102 C93.5666913,186.425102 88.3381405,181.197262 88.3381405,174.748877 C88.3381405,168.300093 93.5670896,163.072651 100.016844,163.072651 C106.466996,163.072651 111.695547,168.300491 111.695547,174.748877 L111.695547,174.748877 Z" id="path4047-2" stroke-width="4.48695585" fill="#E6E6E6"></path>
                <g id="use4233-1" transform="translate(73.254423, 96.285067) rotate(45.000000) translate(-73.254423, -96.285067) translate(40.254423, 26.285067)">
                    <path d="M0.626373625,0.0440771349 L54.0016483,129.129476 L0.626373625,0.0440771349 Z" id="path4360-5" stroke-width="4.13866448" fill="#333333"></path>
                    <path d="M-0.159340659,107.085399 L54.0005494,130.698071 L-0.159340659,107.085399 Z" id="path4362-5" stroke-width="4.13866448"></path>
                    <g id="use4364-2" transform="translate(42.857143, 116.804408)" stroke-width="4.48695584" fill="#E6E6E6">
                        <g id="use4069-3" transform="translate(-0.000000, 0.000000)">
                            <path d="M23.2340088,11.6634772 C23.2340088,18.112261 18.0050596,23.3397024 11.5553054,23.3397024 C5.10515284,23.3397024 -0.123398009,18.1118628 -0.123398009,11.6634772 C-0.123398009,5.21469331 5.10555114,-0.0127480702 11.5553054,-0.0127480702 C18.0054579,-0.0127480702 23.2340088,5.21509153 23.2340088,11.6634772 L23.2340088,11.6634772 Z" id="path4047-2"></path>
                        </g>
                    </g>
                </g>
                <g id="use4235-8" transform="translate(83.571648, 78.352069) rotate(90.000000) translate(-83.571648, -78.352069) translate(50.571648, 8.352069)">
                    <path d="M0.626373626,0.044077135 L54.0016484,129.129477 L0.626373626,0.044077135 Z" id="path4352-6" stroke-width="4.13866449" fill="#333333"></path>
                    <path d="M-0.159340659,107.085399 L54.0005495,130.698072 L-0.159340659,107.085399 Z" id="path4354-1" stroke-width="4.13866449"></path>
                    <g id="use4356-0" transform="translate(42.857143, 116.804408)" stroke-width="4.48695585" fill="#E6E6E6">
                        <g id="use4069-3" transform="translate(-0.000000, 0.000000)">
                            <path d="M23.2340088,11.6634772 C23.2340088,18.1122611 18.0050596,23.3397024 11.5553054,23.3397024 C5.10515284,23.3397024 -0.123398009,18.1118628 -0.123398009,11.6634772 C-0.123398009,5.21469332 5.10555114,-0.0127480702 11.5553054,-0.0127480702 C18.0054579,-0.0127480702 23.2340088,5.21509154 23.2340088,11.6634772 L23.2340088,11.6634772 Z" id="path4047-2"></path>
                        </g>
                    </g>
                </g>
                <g id="use4237-6" transform="translate(103.512377, 72.986902) rotate(135.000000) translate(-103.512377, -72.986902) translate(70.512377, 2.986902)">
                    <path d="M0.626373625,0.0440771349 L54.0016483,129.129476 L0.626373625,0.0440771349 Z" id="path4344-0" stroke-width="4.13866448" fill="#333333"></path>
                    <path d="M-0.159340659,107.085399 L54.0005494,130.698071 L-0.159340659,107.085399 Z" id="path4346-5" stroke-width="4.13866448"></path>
                    <g id="use4348-5" transform="translate(42.857143, 116.804408)" stroke-width="4.48695584" fill="#E6E6E6">
                        <g id="use4069-3" transform="translate(0.000000, 0.000000)">
                            <path d="M23.2340088,11.6634772 C23.2340088,18.112261 18.0050596,23.3397024 11.5553054,23.3397024 C5.10515284,23.3397024 -0.123398009,18.1118628 -0.123398009,11.6634772 C-0.123398009,5.21469331 5.10555114,-0.0127480702 11.5553054,-0.0127480702 C18.0054579,-0.0127480702 23.2340088,5.21509153 23.2340088,11.6634772 L23.2340088,11.6634772 Z" id="path4047-2"></path>
                        </g>
                    </g>
                </g>
                <g id="use4239-6" transform="translate(121.395599, 83.332413) scale(-1, -1) translate(-121.395599, -83.332413) translate(88.395599, 13.332413)">
                    <path d="M0.626373626,0.044077135 L54.0016484,129.129477 L0.626373626,0.044077135 Z" id="path4336-2" stroke-width="4.13866449" fill="#333333"></path>
                    <path d="M-0.159340659,107.085399 L54.0005495,130.698072 L-0.159340659,107.085399 Z" id="path4338-8" stroke-width="4.13866449"></path>
                    <g id="use4340-6" transform="translate(42.857143, 116.804408)" stroke-width="4.48695585" fill="#E6E6E6">
                        <g id="use4069-3" transform="translate(0.000000, 0.000000)">
                            <path d="M23.2340088,11.6634772 C23.2340088,18.1122611 18.0050596,23.3397024 11.5553054,23.3397024 C5.10515284,23.3397024 -0.123398009,18.1118628 -0.123398009,11.6634772 C-0.123398009,5.21469332 5.10555114,-0.0127480702 11.5553054,-0.0127480702 C18.0054579,-0.0127480702 23.2340088,5.21509154 23.2340088,11.6634772 L23.2340088,11.6634772 Z" id="path4047-2"></path>
                        </g>
                    </g>
                </g>
                <g id="use4241-4" transform="translate(126.745571, 103.328340) rotate(225.000000) translate(-126.745571, -103.328340) translate(93.745571, 33.328340)">
                    <path d="M0.626373625,0.0440771349 L54.0016483,129.129476 L0.626373625,0.0440771349 Z" id="path4328-8" stroke-width="4.13866448" fill="#333333"></path>
                    <path d="M-0.159340659,107.085399 L54.0005494,130.698071 L-0.159340659,107.085399 Z" id="path4330-5" stroke-width="4.13866448"></path>
                    <g id="use4332-1" transform="translate(42.857143, 116.804408)" stroke-width="4.48695584" fill="#E6E6E6">
                        <g id="use4069-3" transform="translate(-0.000000, 0.000000)">
                            <path d="M23.2340088,11.6634772 C23.2340088,18.112261 18.0050596,23.3397024 11.5553054,23.3397024 C5.10515284,23.3397024 -0.123398009,18.1118628 -0.123398009,11.6634772 C-0.123398009,5.21469331 5.10555114,-0.0127480702 11.5553054,-0.0127480702 C18.0054579,-0.0127480702 23.2340088,5.21509153 23.2340088,11.6634772 L23.2340088,11.6634772 Z" id="path4047-2"></path>
                        </g>
                    </g>
                </g>
                <g id="use4243-0" transform="translate(116.428346, 121.261336) rotate(-90.000000) translate(-116.428346, -121.261336) translate(83.428346, 51.261336)">
                    <path d="M0.626373626,0.044077135 L54.0016484,129.129477 L0.626373626,0.044077135 Z" id="path4320-7" stroke-width="4.13866449" fill="#333333"></path>
                    <path d="M-0.159340659,107.085399 L54.0005495,130.698072 L-0.159340659,107.085399 Z" id="path4322-0" stroke-width="4.13866449"></path>
                    <g id="use4324-9" transform="translate(42.857143, 116.804408)" stroke-width="4.48695585" fill="#E6E6E6">
                        <g id="use4069-3" transform="translate(0.000000, 0.000000)">
                            <path d="M23.2340088,11.6634772 C23.2340088,18.1122611 18.0050596,23.3397024 11.5553054,23.3397024 C5.10515284,23.3397024 -0.123398009,18.1118628 -0.123398009,11.6634772 C-0.123398009,5.21469332 5.10555114,-0.0127480702 11.5553054,-0.0127480702 C18.0054579,-0.0127480702 23.2340088,5.21509154 23.2340088,11.6634772 L23.2340088,11.6634772 Z" id="path4047-2"></path>
                        </g>
                    </g>
                </g>
                <g id="use4245-6" transform="translate(96.487617, 126.626503) rotate(-45.000000) translate(-96.487617, -126.626503) translate(63.487617, 56.626503)">
                    <path d="M0.626373625,0.0440771349 L54.0016483,129.129476 L0.626373625,0.0440771349 Z" id="path4312-2" stroke-width="4.13866448" fill="#333333"></path>
                    <path d="M-0.159340659,107.085399 L54.0005494,130.698071 L-0.159340659,107.085399 Z" id="path4314-4" stroke-width="4.13866448"></path>
                    <g id="use4316-2" transform="translate(42.857143, 116.804408)" stroke-width="4.48695584" fill="#E6E6E6">
                        <g id="use4069-3" transform="translate(-0.000000, 0.000000)">
                            <path d="M23.2340088,11.6634772 C23.2340088,18.112261 18.0050596,23.3397024 11.5553054,23.3397024 C5.10515284,23.3397024 -0.123398009,18.1118628 -0.123398009,11.6634772 C-0.123398009,5.21469331 5.10555114,-0.0127480702 11.5553054,-0.0127480702 C18.0054579,-0.0127480702 23.2340088,5.21509153 23.2340088,11.6634772 L23.2340088,11.6634772 Z" id="path4047-2"></path>
                        </g>
                    </g>
                </g>
                <g id="use4206-7-9" transform="translate(35.621199, 141.121736)" stroke-width="4.48695585" fill="#E6E6E6">
                    <g id="use4069-3">
                        <path d="M23.2340088,11.6634772 C23.2340088,18.1122611 18.0050596,23.3397024 11.5553054,23.3397024 C5.10515284,23.3397024 -0.123398009,18.1118628 -0.123398009,11.6634772 C-0.123398009,5.21469332 5.10555114,-0.0127480702 11.5553054,-0.0127480702 C18.0054579,-0.0127480702 23.2340088,5.21509154 23.2340088,11.6634772 L23.2340088,11.6634772 Z" id="path4047-2"></path>
                    </g>
                </g>
                <g id="use4206-3-6" transform="translate(13.745429, 88.124391)" stroke-width="4.48695585" fill="#E6E6E6">
                    <g id="use4069-3">
                        <path d="M23.2340088,11.6634772 C23.2340088,18.1122611 18.0050596,23.3397024 11.5553054,23.3397024 C5.10515284,23.3397024 -0.123398009,18.1118628 -0.123398009,11.6634772 C-0.123398009,5.21469332 5.10555114,-0.0127480702 11.5553054,-0.0127480702 C18.0054579,-0.0127480702 23.2340088,5.21509154 23.2340088,11.6634772 L23.2340088,11.6634772 Z" id="path4047-2"></path>
                    </g>
                </g>
                <g id="use4206-34-6" transform="translate(88.461538, 163.085399)" stroke-width="4.48695585" fill="#E6E6E6">
                    <g id="use4069-3">
                        <path d="M23.2340088,11.6634772 C23.2340088,18.1122611 18.0050596,23.3397024 11.5553054,23.3397024 C5.10515284,23.3397024 -0.123398009,18.1118628 -0.123398009,11.6634772 C-0.123398009,5.21469332 5.10555114,-0.0127480702 11.5553054,-0.0127480702 C18.0054579,-0.0127480702 23.2340088,5.21509154 23.2340088,11.6634772 L23.2340088,11.6634772 Z" id="path4047-2"></path>
                    </g>
                </g>
                <path d="M90.2551473,124.614932 C85.0055569,122.394477 80.4358011,120.292063 80.100378,119.942869 C79.7647576,119.593652 77.6882915,114.968816 75.4860636,109.665713 L71.481978,100.023306 L75.3397819,90.5364027 C77.4615521,85.3186338 79.6051357,80.6200629 80.103228,80.0948882 C80.6013368,79.5697853 85.2684694,77.3615445 90.4744876,75.1876862 L99.9403242,71.2352066 L109.955882,75.4305173 L119.97144,79.625828 L124.183959,89.7613134 L128.396478,99.8967988 L124.277022,110.009042 L120.157566,120.121284 L112.719615,123.262538 C108.628604,124.990246 104.04849,126.909708 102.541278,127.528075 C99.8927511,128.614672 99.4809261,128.516997 90.2561338,124.615209 L90.2551473,124.614932 Z" id="path4501-2" stroke-width="5.2554471" fill="#333333"></path>
            </g>
            <g id="Harddrive" transform="translate(64.000000, 53.000000)" sketch:type="MSShapeGroup">
                <rect id="rect3026-0" fill="#333333" x="0" y="0" width="72.0915" height="94.1193651" rx="9.6122"></rect>
                <path d="M65,58 C65,74.0162538 52.0162538,87 36,87 C19.9837462,87 7,74.0162538 7,58 C7,41.9837462 19.9837462,29 36,29 C52.0162538,29 65,41.9837462 65,58 L65,58 Z" id="path3016-2" fill="#E6E6E6"></path>
                <path d="M68,11 C68,14.8661 64.8661,18 61,18 C57.1339,18 54,14.8661 54,11 C54,7.1339 57.1339,4 61,4 C64.8661,4 68,7.1339 68,11 L68,11 Z" id="path3034-0" fill="#E6E6E6"></path>
                <path d="M8.085,17.6436508 L20.91525,5.77130159 L42.22875,35.2082222 L36.0636,40.9130524 L8.085,17.6436508 Z" id="rect3832-9" stroke="#333333" stroke-width="2.50997965" fill="#E6E6E6"></path>
                <path d="M45.2145,58.10725 C45.2145,63.136975 41.137125,67.2145 36.10725,67.2145 C31.077525,67.2145 27,63.137125 27,58.10725 C27,53.077525 31.077375,49 36.10725,49 C41.136975,49 45.2145,53.077375 45.2145,58.10725 L45.2145,58.10725 Z" id="path5336" fill="#333333"></path>
            </g>
            <g id="Sia" transform="translate(198.000000, 34.000000)" fill="#000000" sketch:type="MSShapeGroup">
                <path d="M1.81595194,117.737767 L1.81595194,90.0549987 L11.1792411,90.1364186 C11.4506421,99.3640541 14.1239023,106.189688 19.1991018,110.613525 C24.2743013,115.037362 31.9955452,117.249247 42.363065,117.249247 C52.0249421,117.249247 59.3933699,115.335899 64.4685694,111.509144 C69.5437689,107.682389 72.0813306,102.105181 72.0813306,94.7773533 C72.0813306,88.9150907 70.5479377,84.409901 67.4811059,81.2616489 C64.4142742,78.1133968 57.9414564,75.046611 48.0624584,72.0611996 L32.022737,67.2574251 C20.4067723,63.7292116 12.2241536,59.3325806 7.47463539,54.0674004 C2.72511714,48.8022202 0.350393635,41.5830607 0.350393635,32.4097054 C0.350393635,22.0964658 4.01425276,14.0902551 11.3420809,8.39083325 C18.6699091,2.69141135 28.9558543,-0.158256856 42.2002252,-0.158256856 C47.8453669,-0.158256856 54.0332178,0.452386331 60.7639637,1.67369102 C67.4947096,2.89499572 74.6595896,4.67264588 82.2588188,7.00669485 L82.2588188,32.8982249 L73.0583695,32.8982249 C72.1356059,24.3219519 69.2723679,18.1205311 64.4685694,14.2937764 C59.664771,10.4670217 52.3506226,8.55367306 42.5259048,8.55367306 C33.9496319,8.55367306 27.4225347,10.3041835 22.9444175,13.805257 C18.4663003,17.3063304 16.2272753,22.3950237 16.2272753,29.0714893 C16.2272753,34.8794716 17.9099365,39.4389408 21.2753094,42.7500335 C24.6406823,46.0611262 31.7784227,49.3450296 42.6887446,52.6018421 L57.7514272,57.0799369 C68.7703095,60.3910296 76.6272519,64.6112525 81.3224899,69.7407322 C86.017728,74.870212 88.3653118,81.7501252 88.3653118,90.3806784 C88.3653118,102.159484 84.5928939,111.034165 77.0479449,117.004988 C69.5029959,122.97581 58.2671612,125.961177 43.3401039,125.961177 C36.6636382,125.961177 29.8651441,125.282685 22.9444175,123.92568 C16.0236909,122.568674 8.98093947,120.506057 1.81595194,117.737767 Z M116.780859,10.1820712 C116.780859,7.68518158 117.690039,5.51400581 119.508426,3.66847871 C121.326813,1.82295162 123.511558,0.900201919 126.062728,0.900201919 C128.559618,0.900201919 130.717224,1.82295162 132.535611,3.66847871 C134.353998,5.51400581 135.263177,7.68518158 135.263177,10.1820712 C135.263177,12.733241 134.367567,14.9044168 132.576321,16.6956636 C130.785074,18.4869105 128.613898,19.3825205 126.062728,19.3825205 C123.511558,19.3825205 121.326813,18.4869105 119.508426,16.6956636 C117.690039,14.9044168 116.780859,12.733241 116.780859,10.1820712 Z M135.914537,114.96949 L150.0816,114.96949 L150.0816,123.6 L106.603371,123.6 L106.603371,114.96949 L120.933274,114.96949 L120.933274,45.76257 L106.603371,45.76257 L106.603371,37.0506401 L135.914537,37.0506401 L135.914537,114.96949 Z M235.246822,69.5371825 L235.246822,114.96949 L248.599686,114.96949 L248.599686,123.6 L220.265559,123.6 L220.265559,114.236711 C216.954466,118.253446 213.127769,121.211673 208.785352,123.11148 C204.442936,125.011288 199.367812,125.961177 193.55983,125.961177 C183.952233,125.961177 176.325978,123.410046 170.680836,118.307706 C165.035695,113.205366 162.213166,106.311883 162.213166,97.62705 C162.213166,88.6708156 165.44279,81.7230531 171.902135,76.7835541 C178.36148,71.8440551 187.480418,69.3743427 199.259223,69.3743427 L220.265559,69.3743427 L220.265559,63.4306895 C220.265559,56.8627843 218.270791,51.7740911 214.281196,48.1644572 C210.291601,44.5548233 204.687253,42.7500335 197.467985,42.7500335 C191.497163,42.7500335 186.747716,44.1070183 183.219502,46.8210288 C179.691288,49.5350392 177.492973,53.5517144 176.62449,58.8711748 L168.889599,58.8711748 L168.889599,41.3658951 C174.100499,39.1404065 179.162052,37.4713152 184.074411,36.3585709 C188.98677,35.2458266 193.776926,34.6894628 198.445024,34.6894628 C210.44095,34.6894628 219.573459,37.6612597 225.842823,43.6049425 C232.112187,49.5486253 235.246822,58.1926189 235.246822,69.5371825 Z M220.265559,96.4057514 L220.265559,78.0862726 L200.969041,78.0862726 C193.532653,78.0862726 187.996155,79.6875147 184.359381,82.890047 C180.722607,86.0925793 178.904247,91.0048645 178.904247,97.62705 C178.904247,103.652153 180.749746,108.42874 184.440801,111.956953 C188.131855,115.485167 193.125559,117.249247 199.422063,117.249247 C205.664287,117.249247 210.698701,115.322329 214.525456,111.468434 C218.35221,107.614539 220.265559,102.593695 220.265559,96.4057514 Z" id="tspan4855-4-2"></path>
            </g>
        </g>
    </g>
</svg>